<?xml version="1.0" encoding="UTF-8"?>
<svg id="Layer_1" data-name="Layer 1" xmlns="http://www.w3.org/2000/svg" viewBox="0 0 159.98 43.46">
  <defs>
    <style>
      .cls-1 {
        fill: #20205b;
      }

      .cls-1, .cls-2, .cls-3, .cls-4 {
        stroke-width: 0px;
      }

      .cls-2 {
        fill: #0e82c6;
      }

      .cls-3 {
        fill: #606161;
      }

      .cls-4 {
        fill: #282f3f;
      }

      .cls-5 {
        isolation: isolate;
      }
    </style>
  </defs>
  <path class="cls-1" d="M6.2,28.28v-12.44c-.03-1.57.14-3.15.49-4.68.55-2.71,2.85-4.72,5.61-4.9,2.54-.44,5.09.69,6.46,2.87.64,1.08,1.03,2.29,1.14,3.54.14,1.08.21,2.16.19,3.25v6.13c0,.29.07.39.38.39h5.44c.22,0,.35,0,.35-.29-.07-3.29.16-6.58-.21-9.86-.2-2.53-1.03-4.97-2.42-7.1-1.5-2.15-3.7-3.72-6.23-4.42-1.33-.43-2.72-.66-4.12-.68-1.04,0-2.08.11-3.09.34-1.9.38-3.68,1.18-5.23,2.34-1.89,1.49-3.27,3.53-3.95,5.84C.29,10.97-.05,13.43,0,15.89c0,9.02,0,18.04,0,27.07,0,.43.14.5.52.5h5.12q.53,0,.53-.51l.02-14.67Z"/>
  <path class="cls-2" d="M45.76,0h-12.37c-2.31,0-4.58.55-6.64,1.6-.7.37-1.37.8-2,1.29-.14.12-.22.21-.08.39,1.29,1.78,2.15,3.83,2.52,6,.02.08.05.16.08.24.33-.6.75-1.15,1.24-1.63,1.17-1.02,2.65-1.64,4.2-1.76,2.38-.26,4.77-.08,7.16-.13.21,0,.29.09.28.29v30.48c0,.67,0,.59-.58.58-2.14,0-4.27.09-6.4-.08-1.32-.08-2.61-.45-3.76-1.1-1.31-.79-2.26-2.08-2.62-3.57-.27-1-.44-2.03-.5-3.06h2.84c.25,0,.46-.21.46-.46v-4.23c0-.25-.21-.45-.46-.46h-8.7c-.26,0-.36.07-.36.34-.08,2.43.03,4.86.31,7.28.32,2.59,1.36,5.04,3,7.08,1.86,2.15,4.42,3.57,7.23,4,1.41.26,2.85.38,4.29.36h10.84c.51,0,.52,0,.52-.54V.57c0-.45-.06-.57-.5-.57Z"/>
  <g class="cls-5">
    <g class="cls-5">
      <path class="cls-3" d="M55.45,18.13v-7h1.07l5.68,5.73-.06.09c-.03-.2-.06-.42-.08-.65-.02-.23-.04-.47-.05-.71-.01-.24-.02-.49-.04-.74,0-.25-.02-.49-.02-.73s0-.47,0-.69v-2.3h1.08v7h-1.09l-5.61-5.52v-.14c.02.12.04.26.05.43.01.17.03.35.05.54.02.19.04.39.06.6.02.2.03.41.04.61.01.2.02.4.02.58v2.91h-1.08Z"/>
      <path class="cls-3" d="M65.66,18.13v-7h5.81v1.04h-4.73v4.92h4.73v1.04h-5.81ZM66.25,15.06v-1.04h4.67v1.04h-4.67Z"/>
      <path class="cls-3" d="M73.89,18.13v-7h4.09c.41,0,.79.09,1.13.29.34.19.62.45.83.77.21.33.31.69.31,1.09s-.11.8-.34,1.14c-.23.34-.53.62-.9.82s-.78.3-1.23.3h-2.81v2.58h-1.08ZM74.97,14.51h2.71c.25,0,.49-.06.71-.17s.39-.26.52-.45.19-.39.19-.61c0-.21-.06-.39-.19-.56-.13-.17-.3-.3-.52-.4-.22-.1-.45-.15-.71-.15h-2.71v2.34ZM79.31,18.13l-2.38-3.16,1.15-.25,2.58,3.42h-1.35Z"/>
      <path class="cls-3" d="M83,18.13v-7h3.54c.64,0,1.21.09,1.7.28s.9.44,1.24.76c.33.32.58.7.75,1.12.17.42.25.87.25,1.34s-.08.93-.25,1.36c-.17.42-.42.79-.75,1.11-.33.32-.75.57-1.24.75-.49.18-1.05.28-1.7.28h-3.54ZM84.08,17.2l-.03-.11h2.44c.5,0,.93-.06,1.29-.19.36-.13.65-.3.88-.53s.4-.49.5-.79c.11-.3.17-.62.17-.96s-.05-.65-.17-.94c-.11-.29-.28-.55-.5-.78-.23-.23-.52-.41-.88-.54s-.79-.2-1.29-.2h-2.47l.06-.09v5.12Z"/>
      <path class="cls-3" d="M95.53,18.23c-.5,0-.96-.05-1.38-.15-.42-.1-.81-.25-1.16-.45-.35-.2-.67-.45-.96-.76l.68-.9c.43.45.88.77,1.33.98.45.21.95.31,1.5.31.35,0,.68-.04,1-.12.32-.08.58-.21.79-.38s.31-.38.31-.64c0-.17-.06-.3-.17-.41-.11-.11-.26-.19-.45-.26-.18-.07-.38-.12-.59-.16-.21-.04-.42-.07-.62-.09-.2-.02-.36-.04-.5-.05-.45-.06-.85-.14-1.21-.25-.36-.1-.67-.23-.93-.39-.26-.16-.45-.36-.59-.59s-.21-.5-.21-.81c0-.33.08-.62.24-.88.16-.26.38-.47.66-.65s.61-.31.99-.41c.38-.09.78-.14,1.22-.14.47,0,.89.05,1.28.14s.73.23,1.04.42c.3.18.55.41.75.67l-.72.79c-.19-.23-.4-.42-.65-.58-.25-.16-.52-.27-.81-.35-.29-.08-.6-.12-.92-.12-.36,0-.68.04-.97.12-.29.08-.51.19-.68.33-.17.14-.25.32-.25.52,0,.18.05.33.15.46.1.13.25.23.44.32s.41.15.67.21.55.1.88.14c.4.05.79.11,1.16.18.37.07.71.17,1,.3.29.13.53.3.7.53.17.22.26.51.26.86,0,.45-.14.85-.41,1.19s-.66.6-1.14.79c-.49.19-1.07.28-1.74.28Z"/>
      <path class="cls-3" d="M107.45,18.29c-.72,0-1.31-.11-1.78-.32s-.81-.48-1.04-.82c-.23-.34-.34-.69-.34-1.07,0-.47.16-.89.49-1.29.32-.39.81-.71,1.47-.96l.69.72c-.52.13-.88.32-1.07.56-.19.24-.29.5-.29.78,0,.21.06.42.19.62.12.2.33.36.61.48.29.12.67.18,1.14.18.26,0,.54-.04.84-.12.3-.08.59-.2.85-.38.27-.18.49-.42.66-.72.17-.3.26-.68.26-1.12h1.12c0,.48-.08.91-.23,1.28-.16.37-.37.7-.63.97-.27.27-.57.5-.9.67s-.67.31-1.03.4c-.35.09-.69.13-1.02.13ZM110.46,18.13l-.77-.88-.3-.28-2.03-1.84c-.16-.15-.35-.31-.57-.5s-.43-.38-.63-.58c-.2-.2-.37-.42-.5-.64s-.2-.45-.2-.67c0-.27.1-.53.29-.8.19-.27.47-.49.83-.67.37-.18.81-.27,1.32-.27.47,0,.89.06,1.25.19s.68.3.94.52c.26.21.48.45.64.72l-.73.7c-.25-.4-.57-.69-.96-.87-.38-.18-.75-.26-1.1-.26-.2,0-.39.02-.57.06-.18.04-.32.12-.43.21-.11.1-.17.23-.17.39,0,.11.03.22.09.33s.14.22.24.33c.1.11.2.21.31.31s.22.2.32.29l2.6,2.38.19.27,1.38,1.56h-1.45Z"/>
      <path class="cls-3" d="M121.45,18.23c-.55,0-1.08-.08-1.58-.23s-.94-.38-1.33-.68c-.39-.3-.69-.68-.92-1.12-.22-.45-.33-.97-.33-1.57,0-.5.11-.97.33-1.4.22-.43.53-.81.92-1.13s.86-.58,1.38-.75,1.08-.27,1.69-.27c.51,0,.97.06,1.4.17.43.11.81.26,1.14.44.33.18.59.37.77.58l-.7.79c-.24-.19-.5-.35-.78-.49-.28-.14-.57-.24-.88-.32-.31-.08-.63-.12-.96-.12-.45,0-.86.06-1.25.19-.38.13-.72.3-1.01.53-.29.23-.52.49-.68.79-.16.3-.24.63-.24,1,0,.44.08.82.25,1.14.17.32.4.59.69.8.29.21.62.36,1,.46.37.1.75.15,1.16.15s.79-.04,1.14-.12c.36-.08.67-.19.94-.33.27-.14.47-.31.62-.51s.21-.4.19-.63v-.13s.15.22.15.22h-2.99v-1.05h4c.01.1.02.18.03.24s0,.11,0,.13v.08c0,.53-.1.99-.3,1.38-.2.39-.49.72-.86.98s-.81.45-1.32.58c-.51.13-1.07.19-1.69.19Z"/>
      <path class="cls-3" d="M127.65,18.13v-7h5.81v1.04h-4.73v4.92h4.73v1.04h-5.81ZM128.25,15.06v-1.04h4.67v1.04h-4.67Z"/>
      <path class="cls-3" d="M135.88,18.13v-7h5.81v1.04h-4.73v4.92h4.73v1.04h-5.81ZM136.47,15.06v-1.04h4.67v1.04h-4.67Z"/>
    </g>
    <g class="cls-5">
      <path class="cls-3" d="M144.12,18.13v-7h1.08v7h-1.08ZM144.89,16.39v-1.23l5.16-4.03h1.6l-6.76,5.26ZM150.07,18.13l-3.07-3.79.67-.86,3.84,4.65h-1.44Z"/>
    </g>
    <g class="cls-5">
      <path class="cls-3" d="M156.69,18.23c-.5,0-.96-.05-1.38-.15-.42-.1-.81-.25-1.16-.45-.35-.2-.67-.45-.96-.76l.68-.9c.43.45.88.77,1.33.98.45.21.95.31,1.5.31.35,0,.68-.04,1-.12.32-.08.58-.21.79-.38s.31-.38.31-.64c0-.17-.06-.3-.17-.41-.11-.11-.26-.19-.45-.26-.18-.07-.38-.12-.59-.16-.21-.04-.42-.07-.62-.09-.2-.02-.36-.04-.5-.05-.45-.06-.85-.14-1.21-.25-.36-.1-.67-.23-.93-.39-.26-.16-.45-.36-.59-.59s-.21-.5-.21-.81c0-.33.08-.62.24-.88.16-.26.38-.47.66-.65s.61-.31.99-.41c.38-.09.78-.14,1.22-.14.47,0,.89.05,1.28.14s.73.23,1.04.42c.3.18.55.41.75.67l-.72.79c-.19-.23-.4-.42-.65-.58-.25-.16-.52-.27-.81-.35-.29-.08-.6-.12-.92-.12-.36,0-.68.04-.97.12-.29.08-.51.19-.68.33-.17.14-.25.32-.25.52,0,.18.05.33.15.46.1.13.25.23.44.32s.41.15.67.21.55.1.88.14c.4.05.79.11,1.16.18.37.07.71.17,1,.3.29.13.53.3.7.53.17.22.26.51.26.86,0,.45-.14.85-.41,1.19s-.66.6-1.14.79c-.49.19-1.07.28-1.74.28Z"/>
    </g>
  </g>
  <g class="cls-5">
    <g class="cls-5">
      <path class="cls-4" d="M56.1,29.74v-4.2h2.45c.25,0,.48.06.68.17.21.11.37.27.5.46.12.2.19.41.19.65s-.07.48-.2.69c-.14.21-.32.37-.54.49-.22.12-.47.18-.74.18h-1.69v1.55h-.65ZM56.75,27.57h1.63c.15,0,.29-.03.42-.1.13-.07.23-.16.31-.27s.12-.23.12-.37c0-.12-.04-.24-.12-.34-.08-.1-.18-.18-.31-.24-.13-.06-.27-.09-.42-.09h-1.63v1.4Z"/>
      <path class="cls-4" d="M61.22,29.74v-4.2h2.45c.25,0,.48.06.68.17.21.11.37.27.5.46.12.2.19.41.19.65s-.07.48-.2.69c-.14.21-.32.37-.54.49-.22.12-.47.18-.74.18h-1.69v1.55h-.65ZM61.87,27.57h1.63c.15,0,.29-.03.42-.1.13-.07.23-.16.31-.27s.12-.23.12-.37c0-.12-.04-.24-.12-.34-.08-.1-.18-.18-.31-.24-.13-.06-.27-.09-.42-.09h-1.63v1.4ZM64.47,29.74l-1.43-1.9.69-.15,1.55,2.05h-.81Z"/>
      <path class="cls-4" d="M66.73,29.74v-.64h1.1v-2.92h-1.1v-.64h2.84v.64h-1.1v2.92h1.1v.64h-2.84Z"/>
    </g>
    <g class="cls-5">
      <path class="cls-4" d="M72.61,29.74l-1.94-4.2h.73l1.12,2.5c.02.06.06.14.11.24.05.11.11.22.17.36.06.13.12.26.17.39s.1.24.13.34h-.19c.04-.11.1-.25.17-.42.07-.16.14-.32.21-.49.07-.16.13-.3.18-.42l1.04-2.51h.76l-1.89,4.2h-.78Z"/>
    </g>
    <g class="cls-5">
      <path class="cls-4" d="M75.33,29.74l2.05-4.2h.76l2.04,4.2h-.71l-1.41-2.89c-.04-.08-.07-.15-.11-.22-.04-.07-.07-.14-.1-.22s-.07-.15-.1-.23c-.03-.08-.06-.17-.1-.26h.19c-.04.09-.07.18-.1.26-.03.08-.07.16-.1.24-.04.08-.07.15-.11.23-.04.07-.07.15-.11.22l-1.4,2.87h-.68ZM76.22,28.76l.26-.62h2.49l.1.62h-2.85Z"/>
    </g>
    <g class="cls-5">
      <path class="cls-4" d="M82.02,29.74v-3.58h-1.6v-.62h3.88v.62h-1.63v3.58h-.65Z"/>
      <path class="cls-4" d="M85.4,29.74v-4.2h3.49v.62h-2.84v2.95h2.84v.62h-3.49ZM85.75,27.9v-.62h2.8v.62h-2.8Z"/>
      <path class="cls-4" d="M92.64,29.74v-4.2h.65v3.58h2.81v.62h-3.46Z"/>
      <path class="cls-4" d="M97.48,29.74v-.64h1.1v-2.92h-1.1v-.64h2.84v.64h-1.1v2.92h1.1v.64h-2.84Z"/>
      <path class="cls-4" d="M101.96,29.74v-4.2h.64l1.91,2.37h-.23l1.91-2.37h.64v4.2h-.65v-1.78c0-.33,0-.64.02-.94.02-.29.05-.59.1-.89l.07.25-1.78,2.16h-.4l-1.78-2.16.07-.25c.05.3.08.6.1.89s.02.6.02.94v1.78h-.65Z"/>
      <path class="cls-4" d="M108.46,29.74v-.64h1.1v-2.92h-1.1v-.64h2.84v.64h-1.1v2.92h1.1v.64h-2.84Z"/>
      <path class="cls-4" d="M114.04,29.74v-3.58h-1.6v-.62h3.88v.62h-1.63v3.58h-.65Z"/>
      <path class="cls-4" d="M117.41,29.74v-4.2h3.49v.62h-2.84v2.95h2.84v.62h-3.49ZM117.77,27.9v-.62h2.8v.62h-2.8Z"/>
      <path class="cls-4" d="M122.35,29.74v-4.2h2.12c.38,0,.72.06,1.02.17.29.11.54.27.74.46.2.19.35.42.45.67.1.25.15.52.15.8s-.05.56-.15.81c-.1.25-.25.48-.45.67-.2.19-.45.34-.74.45s-.63.17-1.02.17h-2.12ZM123,29.19l-.02-.07h1.46c.3,0,.56-.04.77-.11.21-.08.39-.18.53-.32.14-.14.24-.29.3-.47.07-.18.1-.37.1-.57s-.03-.39-.1-.56c-.07-.18-.17-.33-.3-.47-.14-.14-.31-.25-.53-.32s-.47-.12-.77-.12h-1.48l.04-.05v3.07Z"/>
    </g>
  </g>
</svg>