<svg xmlns="http://www.w3.org/2000/svg" width="216.217" height="35.545" viewBox="0 0 216.217 35.545">
  <g id="Group_166381" data-name="Group 166381" transform="translate(-515.287 -393)">
    <g id="Group_166660" data-name="Group 166660" transform="translate(557.98 402.421)">
      <path id="Path_31" data-name="Path 31" d="M902.388-138.182V-123.6h8.468v3.426H898.84v-18.013Zm21.048,14.488h-5.972L916-120.169h-3.5l8.125-17.736h.2l8.125,17.736h-4.112Zm-1.175-2.986-1.738-4.381-1.811,4.381Zm18.575-2.986a5.687,5.687,0,0,1,2.215,1.725,4,4,0,0,1,.8,2.46,4.61,4.61,0,0,1-1.8,4.026,7.532,7.532,0,0,1-4.491,1.285h-6v-18.013h5.286a7.666,7.666,0,0,1,4.5,1.163,3.869,3.869,0,0,1,1.64,3.365,4.793,4.793,0,0,1-.563,2.362,4.288,4.288,0,0,1-1.586,1.628Zm-5.727-1.15h2.154a1.934,1.934,0,0,0,1.517-.6,2.135,2.135,0,0,0,.538-1.481,1.649,1.649,0,0,0-.612-1.383,2.682,2.682,0,0,0-1.689-.477H935.11Zm2.276,7.342a3.647,3.647,0,0,0,2.019-.5,1.676,1.676,0,0,0,.771-1.5q0-1.909-3.035-1.909h-2.03v3.916Zm19.628-10.352a8.767,8.767,0,0,0-4.087-1.3,3.089,3.089,0,0,0-1.823.465,1.6,1.6,0,0,0-.649,1.4,1.836,1.836,0,0,0,.943,1.505,11.753,11.753,0,0,0,2.508,1.236,10.424,10.424,0,0,1,2.178,1.065,4.765,4.765,0,0,1,1.505,1.652,5.337,5.337,0,0,1,.6,2.668,4.877,4.877,0,0,1-.722,2.582,5.037,5.037,0,0,1-2.117,1.884,7.365,7.365,0,0,1-3.328.7,11.1,11.1,0,0,1-3.206-.477,10.017,10.017,0,0,1-2.961-1.456l1.567-2.766a8.506,8.506,0,0,0,2.129,1.126,6.327,6.327,0,0,0,2.154.441,3.87,3.87,0,0,0,1.958-.477,1.653,1.653,0,0,0,.832-1.554q0-1.4-2.618-2.423a23.416,23.416,0,0,1-2.57-1.175,5.288,5.288,0,0,1-1.774-1.615,4.456,4.456,0,0,1-.746-2.643,4.868,4.868,0,0,1,1.53-3.745,6.215,6.215,0,0,1,4.075-1.542,10.64,10.64,0,0,1,3.353.453,11.444,11.444,0,0,1,2.619,1.285Z" transform="translate(-784.839 138.28)"/>
      <path id="Path_32" data-name="Path 32" d="M36.031-138.944v18.254H32.482v-8.59l-5.874,8.346H26.56l-5.653-7.807v8.052H17.48v-18.254h.02l9.129,12.453,9.349-12.453ZM49.59-124.215H43.618L42.15-120.69h-3.5l8.125-18.229h.2L55.1-120.69H50.985ZM48.415-127.2l-1.738-4.381L44.866-127.2Zm25.526-11.5v18h-.1l-12.6-10.64.073,10.646h-3.6v-17.982h.147L70.44-127.864,70.368-138.7Zm15.565,0v3.426H85.125v14.586H81.577v-14.586h-4.21V-138.7Zm13.142,18.013-3.793-5.727H96.481v5.727H92.933V-138.7H98.39a7.611,7.611,0,0,1,5.2,1.627,5.615,5.615,0,0,1,1.848,4.442,7.13,7.13,0,0,1-.7,3.12,5.176,5.176,0,0,1-2.141,2.288l4.185,6.535Zm-6.167-9.153H99a2.508,2.508,0,0,0,2.1-.844,2.9,2.9,0,0,0,.661-1.823,3.459,3.459,0,0,0-.563-1.872,2.378,2.378,0,0,0-2.178-.893H96.481Zm22.149,5.629h-5.972l-1.468,3.524h-3.5l8.125-17.982h.2l8.125,17.982h-4.112Zm-1.175-2.986-1.738-4.381-1.811,4.381Z" transform="translate(-17.48 139.003)"/>
    </g>
    <circle id="Ellipse_25" data-name="Ellipse 25" cx="17.772" cy="17.772" r="17.772" transform="translate(515.287 393)" fill="#f6f8fd"/>
    <g id="Group_166664" data-name="Group 166664" transform="translate(520.769 404.467)">
      <path id="Path_26" data-name="Path 26" d="M10.085,5.622A4.98,4.98,0,0,1,8.947,3.987,7.5,7.5,0,0,1,8.525,2.6a4.266,4.266,0,0,1-.07-.635,1.532,1.532,0,0,0-.018-.2h0a2.048,2.048,0,1,0-3.984.891q.045.15.078.3A4.3,4.3,0,0,1,4.593,5.15,3.775,3.775,0,0,1,2.134,7.1h0q-.117.04-.231.089A3.153,3.153,0,1,0,6.049,8.837q-.065-.149-.143-.289A3.906,3.906,0,0,1,5.5,5.5a2.22,2.22,0,0,1,.784-1.017,1.2,1.2,0,0,1,.574-.231,1.269,1.269,0,0,1,.741.214,5.761,5.761,0,0,1,1.52,1.393,10.616,10.616,0,0,1,.745.971,9.215,9.215,0,0,1,.891,1.792,1.593,1.593,0,0,1,.9-1.092c.159-.079.315-.165.468-.256a12.634,12.634,0,0,1-2.034-1.653m-4.97,5.246A2.116,2.116,0,1,1,3.933,8.124a2.116,2.116,0,0,1,1.186,2.743m2.4-8.375A1.194,1.194,0,1,1,6.848.944a1.194,1.194,0,0,1,.671,1.548" transform="translate(0 -0.003)" fill="#d34240"/>
      <path id="Path_27" data-name="Path 27" d="M568.2,8.923a3.132,3.132,0,0,0-1.68-1.732q-.114-.049-.231-.089h0a3.775,3.775,0,0,1-2.458-1.956,4.3,4.3,0,0,1,.062-2.194q.033-.15.078-.3A2.048,2.048,0,0,0,562.822.169a2.075,2.075,0,0,0-.248-.089,1.979,1.979,0,0,0-.2-.048h0l-.1-.016-.1-.011-.1,0h-.052a2.014,2.014,0,0,0-.3.022l-.076.013a2.052,2.052,0,0,0-1.656,1.728h0v.006c-.009.065-.015.131-.018.2a4.258,4.258,0,0,1-.07.635,7.478,7.478,0,0,1-.422,1.383,4.974,4.974,0,0,1-1.138,1.636,12.418,12.418,0,0,1-2.221,1.77c-.187.113-.378.22-.571.316a1.393,1.393,0,0,0,.568,2.663h.006a1.4,1.4,0,0,0,1.354-1.094c.008-.035.016-.07.025-.106l.018-.07a8.571,8.571,0,0,1,1.042-2.272,10.617,10.617,0,0,1,.745-.971,5.757,5.757,0,0,1,1.523-1.394l.039-.023c.039-.022.078-.043.119-.063l.041-.019.041-.018.029-.012.028-.011.047-.017.043-.013.064-.017.043-.009a.958.958,0,0,1,.176-.017h.072a1.2,1.2,0,0,1,.574.231,2.221,2.221,0,0,1,.784,1.017,3.906,3.906,0,0,1-.409,3.049,3.185,3.185,0,0,0-.143.289,3.153,3.153,0,1,0,5.826.089m-5.746-5.766-.054.02a1.187,1.187,0,0,1-.384.064,1.2,1.2,0,0,1-.626-.177l-.037-.024-.024-.017L561.309,3l-.02,0-.02-.016-.02-.016-.014-.012-.026-.023-.032-.03-.026-.026-.01-.01-.025-.028-.024-.028-.033-.042-.022-.03a.979.979,0,0,1-.054-.083l-.023-.04-.021-.041-.02-.042L560.9,2.49a1.192,1.192,0,1,1,1.547.669m3.593,8.892-.1.035-.1.03a2.1,2.1,0,0,1-.584.083,2.123,2.123,0,0,1-1.043-.275l-.067-.039-.065-.042-.051-.035-.045-.032-.048-.037-.073-.061-.058-.053h0l-.056-.055-.054-.057c-.018-.019-.035-.039-.052-.059l-.05-.062-.024-.031q-.036-.048-.07-.1a2.113,2.113,0,1,1,2.534.788" transform="translate(-543.807)" fill="#23274d"/>
    </g>
  </g>
</svg>
