<svg width="123" height="117" viewBox="0 0 123 117" fill="none" xmlns="http://www.w3.org/2000/svg">
<g clip-path="url(#clip0_10_2)">
<path d="M69.53 91.5471L69.5321 91.5521L82.1974 104.217C82.5587 104.579 83.0476 104.773 83.5518 104.855C86.3736 105.316 88.53 107.771 88.53 110.73C88.53 114.02 85.87 116.68 82.58 116.68C79.29 116.68 76.63 114.01 76.63 110.73C76.63 110.717 76.63 110.704 76.6301 110.691C76.6341 110.041 76.4468 109.387 75.9874 108.928L68.6236 101.571C67.3634 100.312 65.21 101.204 65.21 102.985V104.62C65.21 105.725 64.3146 106.62 63.21 106.62H58.97C57.8654 106.62 56.97 105.725 56.97 104.62V103.221C56.97 101.439 54.8149 100.547 53.5552 101.808L45.7401 109.63C45.4487 109.921 45.31 110.328 45.31 110.74C45.31 114.03 42.65 116.69 39.35 116.69C36.06 116.69 33.4 114.02 33.4 110.74C33.4 107.45 36.07 104.79 39.35 104.79C39.5335 104.79 39.7155 104.724 39.8453 104.595L49.4576 94.9824C50.7173 93.7227 49.8256 91.5688 48.0442 91.5682L1.99925 91.5508C0.894972 91.5503 0 90.655 0 89.5508V15.71C0 15.66 0 15.62 0 15.57V7.52C0 6.65 0.72 5.95 1.61 5.95H54.97C56.0746 5.95 56.97 5.05457 56.97 3.95V2C56.97 0.895431 57.8654 0 58.97 0H63.21C64.3146 0 65.21 0.89543 65.21 2V3.95C65.21 5.05457 66.1054 5.95 67.21 5.95H121.27C122.16 5.95 122.88 6.66 122.88 7.52V15.57C122.88 15.6 122.88 15.62 122.88 15.65V89.54C122.88 90.6446 121.985 91.54 120.88 91.54H69.5371C69.5332 91.54 69.53 91.5432 69.53 91.5471ZM28.3203 64.1403C27.533 63.353 27.5402 62.0743 28.3364 61.296L48.736 41.3524C49.5195 40.5864 50.7735 40.5936 51.5484 41.3683C56.3648 46.1844 61.1493 50.9646 66.0078 55.7735C66.7928 56.5506 68.0593 56.5429 68.8356 55.757L81.4431 42.9942C82.2159 42.2117 82.2121 40.9521 81.4344 40.1744L79.0615 37.8015C77.8076 36.5476 78.6847 34.4032 80.4578 34.3873L93.7921 34.2681C94.9036 34.2581 95.81 35.1564 95.81 36.268V49.7116C95.81 51.4934 93.6557 52.3857 92.3958 51.1258L90.3631 49.0931C89.5786 48.3086 88.3054 48.3126 87.5259 49.102C81.3077 55.3992 75.1081 61.6803 68.8747 67.9322C68.0979 68.7113 66.8377 68.7157 66.0549 67.9427L51.4296 53.5019C50.6528 52.735 49.4047 52.7325 48.6249 53.4963L34.4041 67.425C33.6207 68.1922 32.3657 68.1857 31.5904 67.4104L28.3203 64.1403ZM113.79 23.73C113.79 22.6254 112.895 21.73 111.79 21.73H10.92C9.81543 21.73 8.92 22.6254 8.92 23.73V80.37C8.92 81.4746 9.81543 82.37 10.92 82.37H111.79C112.895 82.37 113.79 81.4746 113.79 80.37V23.73Z" fill="#2E3192"/>
</g>
<defs>
<clipPath id="clip0_10_2">
<rect width="123" height="117" fill="white"/>
</clipPath>
</defs>
</svg>
