<svg width="123" height="120" viewBox="0 0 123 120" fill="none" xmlns="http://www.w3.org/2000/svg">
<g clip-path="url(#clip0_10_4)">
<mask id="mask0_10_4" style="mask-type:luminance" maskUnits="userSpaceOnUse" x="0" y="0" width="123" height="120">
<path d="M122.88 0H0V119.853H122.88V0Z" fill="white"/>
</mask>
<g mask="url(#mask0_10_4)">
<path d="M59.927 0H59.936V0.002C65.838 0.003 71.542 0.857 76.926 2.448C77.787 2.702 78.656 2.982 79.531 3.284C83.959 4.816 88.145 6.849 92.022 9.313C92.295 9.486 92.376 9.848 92.204 10.121C92.186 10.148 92.165 10.175 92.144 10.199L87.856 15.697C87.666 15.941 87.32 15.993 87.068 15.822L87.058 15.816C85.968 15.143 84.842 14.506 83.686 13.907C82.521 13.305 81.337 12.747 80.136 12.238L80.134 12.237C73.928 9.604 67.099 8.148 59.926 8.148H59.92V8.146C52.774 8.146 45.962 9.597 39.768 12.217C38.756 12.645 37.763 13.103 36.793 13.588C31.786 16.092 27.238 19.389 23.313 23.314L23.309 23.318L23.282 23.343C21.98 24.647 20.747 26.02 19.59 27.456C18.426 28.901 17.335 30.412 16.328 31.98C11.151 40.04 8.147 49.632 8.147 59.926V59.932H8.145C8.145 67.078 9.596 73.89 12.216 80.084C12.644 81.097 13.102 82.089 13.587 83.059C16.091 88.065 19.388 92.614 23.314 96.539L23.318 96.543L23.34 96.566C24.644 97.869 26.019 99.103 27.456 100.261C28.901 101.426 30.412 102.516 31.981 103.523C40.041 108.7 49.634 111.704 59.927 111.704H59.933V111.707C67.081 111.706 73.891 110.256 80.085 107.636C81.098 107.208 82.09 106.75 83.06 106.265C88.067 103.761 92.616 100.464 96.54 96.539L96.545 96.534L96.575 96.505C97.875 95.202 99.107 93.831 100.263 92.397C101.428 90.952 102.518 89.44 103.525 87.872C108.703 79.812 111.706 70.22 111.706 59.927V59.917H111.709C111.708 55.598 111.177 51.396 110.176 47.38C110.01 46.711 109.835 46.062 109.653 45.434C108.691 42.127 107.406 38.955 105.839 35.956C105.703 35.697 105.781 35.383 106.011 35.215L111.552 30.834C111.804 30.634 112.171 30.677 112.37 30.93C112.388 30.952 112.403 30.976 112.416 31H112.418L112.422 31.008L112.428 31.02C113.089 32.218 113.714 33.445 114.295 34.696C114.877 35.948 115.416 37.221 115.91 38.51C118.457 45.162 119.853 52.384 119.853 59.928V59.934H119.851C119.85 68.205 118.172 76.088 115.14 83.255C114.649 84.418 114.119 85.567 113.552 86.698C110.649 92.503 106.835 97.767 102.301 102.302L102.297 102.306L102.275 102.326C100.763 103.837 99.17 105.266 97.504 106.609C95.831 107.958 94.083 109.218 92.27 110.383C82.94 116.375 71.837 119.854 59.926 119.854H59.92V119.852C51.649 119.851 43.766 118.173 36.599 115.141C35.436 114.65 34.287 114.119 33.155 113.552C27.351 110.65 22.086 106.835 17.551 102.302L17.547 102.297L17.519 102.268C16.011 100.758 14.584 99.168 13.244 97.505C11.896 95.832 10.635 94.084 9.471 92.271C3.479 82.939 0 71.837 0 59.927V59.92H0.002C0.003 51.649 1.681 43.767 4.712 36.599C5.204 35.436 5.734 34.288 6.301 33.155C9.203 27.351 13.018 22.087 17.551 17.552L17.555 17.548L17.581 17.525C19.091 16.016 20.684 14.587 22.347 13.246C24.021 11.898 25.768 10.637 27.582 9.473C36.915 3.478 48.017 0 59.927 0ZM93.067 16.299L109.837 0.275L110.954 11.082L122.88 12.573L104.922 29.974L96.184 30.724L61.316 63.154L58.103 60.387L91.13 25.887L93.067 16.299ZM59.927 40.958H59.942V40.96C61.07 40.961 62.168 41.058 63.225 41.244C63.348 41.266 63.522 41.299 63.742 41.344H63.745C64.625 41.524 65.487 41.767 66.324 42.067C66.628 42.175 66.786 42.509 66.677 42.813C66.656 42.873 66.624 42.927 66.587 42.975L66.588 42.976L61.907 48.98C61.776 49.149 61.568 49.224 61.369 49.198V49.2L61.342 49.196L61.134 49.172L61.116 49.169L60.936 49.15L60.921 49.148C60.609 49.121 60.278 49.106 59.927 49.106H59.921V49.103C58.43 49.104 57.006 49.408 55.712 49.956C55.498 50.047 55.29 50.143 55.091 50.242C54.049 50.763 53.099 51.452 52.276 52.275L52.272 52.279L52.245 52.303C51.981 52.569 51.731 52.85 51.495 53.143C51.252 53.444 51.024 53.761 50.813 54.089C49.733 55.771 49.107 57.776 49.107 59.926V59.932H49.104C49.105 61.425 49.409 62.848 49.957 64.141C50.048 64.356 50.144 64.564 50.243 64.762C50.764 65.805 51.454 66.754 52.276 67.576L52.28 67.581L52.304 67.606C52.57 67.87 52.851 68.122 53.144 68.357C53.445 68.6 53.762 68.829 54.09 69.04C55.773 70.119 57.778 70.746 59.927 70.746H59.933V70.748C61.426 70.748 62.85 70.444 64.142 69.896C64.357 69.805 64.564 69.709 64.763 69.61C65.806 69.088 66.755 68.399 67.577 67.576L67.582 67.571L67.602 67.552C67.748 67.405 67.89 67.256 68.021 67.109C68.152 66.962 68.289 66.797 68.429 66.619C69.107 65.759 69.658 64.795 70.05 63.758C70.095 63.637 70.176 63.539 70.277 63.474L77.841 57.492C78.094 57.292 78.46 57.335 78.66 57.588C78.73 57.677 78.769 57.78 78.781 57.885H78.784L78.789 57.93L78.791 57.961L78.815 58.211V58.218H78.817L78.839 58.49V58.495C78.874 58.975 78.894 59.452 78.894 59.926V59.932H78.891C78.89 62.549 78.359 65.043 77.4 67.311C77.246 67.676 77.077 68.04 76.897 68.401C75.976 70.24 74.77 71.907 73.337 73.339L73.333 73.343L73.301 73.37C72.829 73.84 72.333 74.287 71.816 74.704C71.286 75.13 70.732 75.53 70.16 75.897C67.206 77.793 63.694 78.894 59.926 78.894H59.92V78.891C57.303 78.89 54.809 78.359 52.542 77.4C52.177 77.246 51.812 77.077 51.452 76.897C49.613 75.976 47.946 74.77 46.514 73.338L46.51 73.334L46.477 73.298C46.009 72.827 45.565 72.332 45.149 71.816C44.722 71.286 44.323 70.733 43.955 70.16C42.059 67.207 40.958 63.694 40.958 59.927V59.92H40.96C40.961 57.304 41.493 54.81 42.451 52.543C42.606 52.178 42.774 51.814 42.954 51.453C43.873 49.617 45.079 47.951 46.513 46.517L46.514 46.516L46.513 46.515L46.517 46.511C46.992 46.037 47.499 45.582 48.035 45.15C48.565 44.723 49.118 44.324 49.691 43.956C52.647 42.059 56.161 40.958 59.927 40.958ZM60.92 49.148C60.613 49.11 60.389 48.838 60.408 48.53L60.92 49.148ZM59.927 20.31H59.937V20.312C63.481 20.313 66.914 20.779 70.175 21.65C70.706 21.792 71.234 21.945 71.757 22.109C74.442 22.947 77.008 24.067 79.418 25.432C79.698 25.591 79.797 25.948 79.638 26.228C79.623 26.252 79.608 26.277 79.59 26.299L79.587 26.302L75.243 31.874C75.061 32.106 74.738 32.164 74.49 32.021L74.476 32.014C73.888 31.707 73.275 31.41 72.638 31.13C71.997 30.847 71.353 30.587 70.707 30.351C67.348 29.125 63.716 28.456 59.926 28.456H59.92V28.454C55.577 28.454 51.438 29.337 47.673 30.929C47.079 31.181 46.475 31.46 45.865 31.764L45.819 31.785C42.796 33.304 40.048 35.299 37.673 37.673L37.669 37.677L37.646 37.7C36.859 38.489 36.112 39.323 35.411 40.193C34.704 41.071 34.041 41.99 33.429 42.943C30.284 47.841 28.459 53.671 28.459 59.926V59.932H28.457C28.457 64.275 29.34 68.415 30.932 72.179C31.192 72.795 31.471 73.399 31.765 73.987C33.286 77.028 35.29 79.792 37.676 82.178L37.68 82.182C38.482 82.985 39.323 83.741 40.195 84.443C41.073 85.15 41.992 85.813 42.945 86.425C47.843 89.571 53.674 91.395 59.928 91.395H59.934V91.397C64.277 91.397 68.417 90.515 72.182 88.923C72.798 88.662 73.402 88.384 73.99 88.089C77.031 86.568 79.795 84.565 82.181 82.178L82.185 82.174C82.988 81.371 83.744 80.531 84.446 79.659C85.153 78.78 85.816 77.862 86.428 76.908C89.575 72.009 91.4 66.179 91.4 59.926H91.398V59.911H91.4C91.4 57.97 91.222 56.066 90.884 54.22C90.833 53.944 90.773 53.642 90.704 53.321C90.377 51.786 89.938 50.297 89.401 48.865C89.305 48.608 89.401 48.326 89.618 48.178L95.281 43.7C95.534 43.5 95.9 43.543 96.099 43.796C96.129 43.835 96.153 43.874 96.172 43.916L96.177 43.926L96.181 43.934L96.182 43.933C96.477 44.602 96.761 45.298 97.032 46.019C97.299 46.731 97.545 47.446 97.766 48.162C98.921 51.881 99.544 55.832 99.544 59.925V59.931H99.541C99.541 65.398 98.432 70.609 96.428 75.346C96.104 76.113 95.752 76.873 95.377 77.623C93.458 81.461 90.937 84.941 87.94 87.937L87.935 87.941L87.913 87.962C86.915 88.957 85.865 89.901 84.767 90.786C83.661 91.678 82.505 92.511 81.307 93.28C75.137 97.242 67.798 99.541 59.926 99.541H59.92C54.453 99.54 49.242 98.431 44.504 96.427C43.737 96.102 42.977 95.751 42.227 95.376C38.39 93.456 34.909 90.936 31.912 87.939L31.908 87.935L31.88 87.905C30.887 86.91 29.946 85.862 29.064 84.766C28.172 83.66 27.339 82.504 26.569 81.306C22.607 75.137 20.308 67.797 20.308 59.926V59.92H20.31C20.311 54.453 21.421 49.242 23.425 44.504C23.749 43.737 24.1 42.977 24.475 42.227C26.393 38.392 28.914 34.913 31.911 31.915L31.912 31.914L31.911 31.913L31.915 31.909L31.941 31.885C32.937 30.89 33.987 29.948 35.083 29.065C36.19 28.173 37.345 27.34 38.543 26.571C44.715 22.609 52.056 20.31 59.927 20.31Z" fill="#2E3192"/>
</g>
</g>
<defs>
<clipPath id="clip0_10_4">
<rect width="123" height="120" fill="white"/>
</clipPath>
</defs>
</svg>
