<svg width="123" height="69" viewBox="0 0 123 69" fill="none" xmlns="http://www.w3.org/2000/svg">
<g clip-path="url(#clip0_10_10)">
<mask id="mask0_10_10" style="mask-type:luminance" maskUnits="userSpaceOnUse" x="0" y="0" width="123" height="69">
<path d="M122.88 0H0V68.3H122.88V0Z" fill="white"/>
</mask>
<g mask="url(#mask0_10_10)">
<path d="M1.09983 31.27C4.27043 27.4159 7.70897 23.7902 11.3898 20.42C25.7598 7.33996 42.0798 0.359959 58.9998 -4.07891e-05C75.9198 -0.360041 92.9998 5.92996 109.29 19.32C113.747 23.0167 117.934 27.0269 121.82 31.32C122.456 32.0206 122.828 32.9203 122.874 33.8652C122.92 34.8101 122.635 35.7415 122.07 36.5C117.744 42.6596 112.573 48.1803 106.71 52.9C105.283 54.04 103.827 55.1167 102.34 56.13L96.6098 50.13C98.3198 49.02 99.9998 47.8 101.61 46.49C106.047 42.9352 110.036 38.8554 113.49 34.34C110.529 31.247 107.394 28.3256 104.1 25.59C89.4398 13.5 73.9998 7.82996 59.1198 8.13996C44.2398 8.44996 29.7698 14.71 16.8698 26.45C14.2376 28.8534 11.7404 31.4006 9.38983 34.08C13.6649 39.056 18.5308 43.4921 23.8798 47.29C35.3831 55.6084 49.2041 60.1128 63.3998 60.17C64.3998 60.17 65.4698 60.17 66.4998 60.08L73.6798 67.49C70.2875 68.0097 66.8617 68.2804 63.4298 68.3C47.5514 68.2718 32.0806 63.2711 19.1898 54C12.2937 49.0881 6.12898 43.223 0.879826 36.58C0.2741 35.8154 -0.0368879 34.8587 0.00349108 33.8841C0.04387 32.9095 0.43293 31.9818 1.09983 31.27ZM62.7998 11.91C66.2118 11.9259 69.5734 12.7352 72.6188 14.2739C75.6642 15.8126 78.3099 18.0386 80.3469 20.7759C82.3838 23.5132 83.7562 26.6868 84.3555 30.0458C84.9548 33.4048 84.7645 36.8572 83.7998 40.13C83.272 41.8847 82.5226 43.5649 81.5698 45.13L94.3298 58.67C94.4292 58.7678 94.5071 58.8854 94.5584 59.0151C94.6097 59.1449 94.6333 59.2839 94.6276 59.4233C94.6219 59.5627 94.5872 59.6993 94.5256 59.8245C94.464 59.9496 94.3768 60.0605 94.2698 60.15L87.9998 65.85C87.9013 65.9488 87.7832 66.026 87.6531 66.0764C87.5229 66.1269 87.3837 66.1495 87.2443 66.1429C87.1049 66.1363 86.9684 66.1006 86.8436 66.0381C86.7189 65.9756 86.6086 65.8877 86.5198 65.78L74.1998 52.62C71.2518 54.4079 67.9248 55.4779 64.4872 55.7437C61.0496 56.0095 57.5976 55.4636 54.4098 54.15C51.7467 53.0421 49.3275 51.4214 47.2898 49.38V49.33C44.7615 46.7682 42.9004 43.6252 41.8697 40.1767C40.8389 36.7281 40.67 33.0793 41.3778 29.5503C42.0856 26.0213 43.6484 22.7198 45.9293 19.9354C48.2101 17.151 51.1392 14.9688 54.4598 13.58C57.1185 12.4739 59.9702 11.9063 62.8498 11.91H62.7998ZM75.1898 21.47C73.5593 19.8441 71.6263 18.5532 69.4998 17.67C65.2212 15.9232 60.4284 15.9232 56.1498 17.67C54.0291 18.5584 52.1003 19.8488 50.4698 21.47C48.8404 23.1014 47.5491 25.0385 46.6698 27.17C45.8116 29.2786 45.3701 31.5335 45.3698 33.81C45.3689 36.111 45.8215 38.3896 46.7017 40.5156C47.5819 42.6415 48.8726 44.5731 50.4998 46.2C52.1259 47.827 54.0566 49.1177 56.1817 49.9983C58.3068 50.8789 60.5845 51.3321 62.8848 51.3321C65.1851 51.3321 67.4629 50.8789 69.5879 49.9983C71.713 49.1177 73.6437 47.827 75.2698 46.2C76.897 44.5731 78.1877 42.6415 79.0679 40.5156C79.9482 38.3896 80.4007 36.111 80.3998 33.81C80.3774 31.5258 79.9015 29.2688 78.9998 27.17C78.1206 25.0385 76.8292 23.1014 75.1998 21.47H75.1898ZM59.3198 22.7C60.7842 22.698 62.2163 23.1306 63.4348 23.943C64.6532 24.7553 65.6033 25.9109 66.1646 27.2635C66.7259 28.6161 66.8733 30.1048 66.5881 31.5412C66.3029 32.9776 65.5979 34.2971 64.5624 35.3326C63.5269 36.3681 62.2074 37.0731 60.771 37.3583C59.3346 37.6435 57.8459 37.4961 56.4933 36.9348C55.1407 36.3735 53.9851 35.4234 53.1728 34.205C52.3604 32.9865 51.9278 31.5544 51.9298 30.09C51.9298 28.1301 52.7084 26.2504 54.0943 24.8645C55.4802 23.4786 57.3599 22.7 59.3198 22.7Z" fill="#2E3192"/>
</g>
</g>
<defs>
<clipPath id="clip0_10_10">
<rect width="123" height="69" fill="white"/>
</clipPath>
</defs>
</svg>
